# xmcd
#
# Track frame offsets: 
#        182
#        12470
#        26985
#        37910
#        48875
#        62142
#        74877
#        88510
#        97577
#        110182
#        120990
#        131650
#        141362
#        150115
#        159795
#        172327
#        184750
#        195112
#        208027
#        221052
#        233295
#        245772
#        255940
#        266657
#        278855
#        290022
#
# Disc length: 4019 seconds
#
# Revision: 11
# Processed by: cddbd v1.5.2PL0 Copyright (c) Steve Scherf et al.
# Submitted via: ExactAudioCopyFreeDBPlugin 1.0
#
DISCID=730fb11a
DTITLE=Various Artist - The Doo Wop Boxes I, II, and III [Rhino box set
DTITLE=s]
DYEAR=1996
DGENRE=Rhythm and Blues
TTITLE0=The Cleftones - You Baby You
TTITLE1=The Teen Queens - Eddie My Love
TTITLE2=The Drifters - Ruby Baby
TTITLE3=The Cadillacs - Zoom
TTITLE4=The Valentines - The Woo Woo Train
TTITLE5=The Magnificents - Up on the Mountain
TTITLE6=The Flamingos - A Kiss from Your Lips
TTITLE7=The G Clefs - Ka Ding Dong
TTITLE8=The Platters - My Prayer
TTITLE9=The Bop Chords - Castle in the Sky
TTITLE10=The Solitaires - The Angels Sang
TTITLE11=The Monarchs - Pretty Little Girl
TTITLE12=Frankie Lymon and The Teenagers - The ABC's of Love
TTITLE13=The Chips - Rubber Biscuit
TTITLE14=The Spaniels - You Gave Me Peace of Mind
TTITLE15=The Cufflinks - Guided Missiles
TTITLE16=Johnnie and Joe - Over the Mountain, Cross the Sea
TTITLE17=The Velvetones - Glory of Love
TTITLE18=The Cellos - Rang Tang Ding Dong (I Am the Japanese Sandman)
TTITLE19=The Love Tones - United
TTITLE20=The Five Satins - To the Aisle
TTITLE21=The Bobbettes - Mr. Lee
TTITLE22=The Velours - Can't Come Over Tonight
TTITLE23=The Paragons - Let's Start All Over Again
TTITLE24=Little Joe and The Thrillers - Peanuts
TTITLE25=The Channels - That's My Desire
EXTD=
EXTT0=The Cleftones
EXTT1=The Teen Queens
EXTT2=The Drifters
EXTT3=The Cadilacs
EXTT4=The Valentines
EXTT5=The Magnificents
EXTT6=Flamingos
EXTT7=The G-Clefs
EXTT8=The Platters
EXTT9=The Bop-Chords
EXTT10=The Solitaires
EXTT11=The Monarchs
EXTT12=Frankie Lymon and The Teenagers
EXTT13=The Chips
EXTT14=The Spaniels
EXTT15=The Cufflinks
EXTT16=Johnnie and Joe
EXTT17=The Velvetones
EXTT18=The Cellos
EXTT19=The Love Notes
EXTT20=The Five Satins
EXTT21=The Bobbettes
EXTT22=The Velours
EXTT23=The Paragons
EXTT24=Little Joe and The Thrillers
EXTT25=The Channels
PLAYORDER=
